<svg width="42" height="42" viewBox="0 0 42 42" fill="none" xmlns="http://www.w3.org/2000/svg">
<path d="M23.0059 12.9344C22.6523 12.5101 22.0218 12.4528 21.5975 12.8064C21.1732 13.1599 21.1159 13.7905 21.4695 14.2148L23.0059 12.9344ZM28.4249 20.9993L29.1931 21.6394C29.5022 21.2686 29.5022 20.7299 29.1931 20.3591L28.4249 20.9993ZM21.4695 27.7838C21.1159 28.208 21.1732 28.8386 21.5975 29.1922C22.0218 29.5457 22.6523 29.4884 23.0059 29.0641L21.4695 27.7838ZM13.5756 19.9993C13.0233 19.9993 12.5756 20.447 12.5756 20.9993C12.5756 21.5515 13.0233 21.9993 13.5756 21.9993L13.5756 19.9993ZM21.4695 14.2148L27.6567 21.6394L29.1931 20.3591L23.0059 12.9344L21.4695 14.2148ZM27.6567 20.3591L21.4695 27.7838L23.0059 29.0641L29.1931 21.6394L27.6567 20.3591ZM28.4249 19.9993L13.5756 19.9993L13.5756 21.9993L28.4249 21.9993V19.9993ZM32.1725 9.82693C38.3428 15.9972 38.3428 26.0012 32.1725 32.1715L33.5867 33.5857C40.538 26.6344 40.538 15.364 33.5867 8.41272L32.1725 9.82693ZM32.1725 32.1715C26.0022 38.3418 15.9982 38.3418 9.82791 32.1715L8.41369 33.5857C15.365 40.537 26.6354 40.537 33.5867 33.5857L32.1725 32.1715ZM9.82791 32.1715C3.65763 26.0012 3.65763 15.9972 9.82791 9.82693L8.41369 8.41272C1.46236 15.364 1.46236 26.6344 8.41369 33.5857L9.82791 32.1715ZM9.82791 9.82693C15.9982 3.65665 26.0022 3.65665 32.1725 9.82693L33.5867 8.41272C26.6354 1.46139 15.365 1.46139 8.41369 8.41272L9.82791 9.82693Z" fill="white"/>
</svg>
