<svg width="50" height="50" viewBox="-9 -9 50 50" fill="none" xmlns="http://www.w3.org/2000/svg">
<path d="M27.773 17.332C27.9864 17.9355 28.0518 18.5814 27.9638 19.2154C27.8758 19.8495 27.6369 20.4531 27.2672 20.9756C26.8975 21.4982 26.4078 21.9244 25.8392 22.2184C25.2706 22.5124 24.6398 22.6657 23.9997 22.6654H7.99971C7.34616 22.6739 6.70047 22.5222 6.11912 22.2235C5.53778 21.9248 5.03849 21.4882 4.66494 20.9518C4.29138 20.4155 4.05495 19.7958 3.97632 19.1469C3.89769 18.4981 3.97925 17.8398 4.21388 17.2298C4.44851 16.6198 4.82906 16.0765 5.32222 15.6476C5.81539 15.2186 6.40615 14.9171 7.04283 14.7693C7.6795 14.6215 8.34269 14.632 8.97438 14.7998C9.60607 14.9677 10.187 15.2877 10.6664 15.732C10.7353 14.0106 11.468 12.3826 12.7108 11.1895C13.9537 9.99632 15.6102 9.33066 17.333 9.33204C18.2512 9.33079 19.1596 9.52154 19.9997 9.89204" stroke="#1A1919" stroke-width="2" stroke-linecap="round" stroke-linejoin="round"/>
<path d="M17.334 14.668L20.0007 17.3346L26.6673 10.668" stroke="#1A1919" stroke-width="2" stroke-linecap="round" stroke-linejoin="round"/>
</svg>
