<svg width="25" height="24" viewBox="0 0 25 24" fill="none" xmlns="http://www.w3.org/2000/svg">
<path d="M20.4809 4.85747C20.4117 4.67309 20.3426 4.627 20.2504 4.60395C19.9969 4.51176 19.605 4.65007 19.605 4.65007C19.605 4.65007 5.062 9.88184 4.23229 10.458C4.0479 10.5733 4.00181 10.6654 3.95571 10.7346C3.81743 11.1494 4.25533 11.3338 4.25533 11.3338L8.01209 12.5553C8.01209 12.5553 8.15038 12.5784 8.19647 12.5553C9.04923 12.0252 16.7702 7.13919 17.2081 6.97786C17.2772 6.95481 17.3233 6.97785 17.3233 7.02394C17.139 7.64622 10.4321 13.6155 10.4321 13.6155C10.4321 13.6155 10.409 13.6386 10.386 13.6847L10.0403 17.3953C10.0403 17.3953 9.902 18.5246 11.0313 17.3953C11.838 16.5887 12.6216 15.9203 12.9904 15.5976C14.281 16.4965 15.6639 17.4644 16.2631 17.9945C16.5628 18.2481 16.8163 18.2942 17.0237 18.2942C17.5999 18.2711 17.7612 17.6488 17.7612 17.6488C17.7612 17.6488 20.4117 6.97784 20.5039 5.54889C20.5039 5.41061 20.527 5.31844 20.527 5.22625C20.5039 5.06492 20.5039 4.92661 20.4809 4.85747Z" fill="white"/>
</svg>
