<svg width="24" height="24" viewBox="-2.5 -2.5 24 24" fill="none" xmlns="http://www.w3.org/2000/svg">
<path d="M8.86075 2.41214C9.01243 2.10481 9.45068 2.10481 9.60236 2.41214L11.5659 6.39067C11.6261 6.51271 11.7425 6.5973 11.8772 6.61688L16.2678 7.25486C16.607 7.30415 16.7424 7.72095 16.497 7.96018L13.3199 11.057C13.2225 11.152 13.178 11.2889 13.201 11.423L13.951 15.7959C14.0089 16.1337 13.6544 16.3913 13.351 16.2318L9.42398 14.1672C9.30351 14.1039 9.1596 14.1039 9.03913 14.1672L5.11209 16.2318C4.80873 16.3913 4.45418 16.1337 4.51211 15.7959L5.26211 11.423C5.28512 11.2889 5.24065 11.152 5.14319 11.057L1.96615 7.96018C1.72072 7.72095 1.85615 7.30415 2.19532 7.25486L6.58588 6.61688C6.72057 6.5973 6.837 6.51271 6.89723 6.39067L8.86075 2.41214Z" stroke="#191919" stroke-width="2" stroke-linejoin="round"/>
</svg>
