<svg width="24" height="24" viewBox="-2.5 -2.5 24 24" fill="none" xmlns="http://www.w3.org/2000/svg">
<path d="M16.6981 12.9006V13.9006C17.2504 13.9006 17.6981 13.4529 17.6981 12.9006H16.6981ZM16.6981 8.92147H17.6981C17.6981 8.36918 17.2504 7.92147 16.6981 7.92147V8.92147ZM5.66689 4.82463C5.20232 5.12328 5.06781 5.742 5.36647 6.20657C5.66512 6.67114 6.28383 6.80564 6.7484 6.50699L5.66689 4.82463ZM11.272 2.41016L12.0613 1.79622C11.7436 1.38767 11.1666 1.2891 10.7312 1.56898L11.272 2.41016ZM13.0148 6.27975C13.3539 6.7157 13.9822 6.79423 14.4181 6.45516C14.8541 6.11609 14.9326 5.48782 14.5935 5.05187L13.0148 6.27975ZM16.6981 11.9006H14.3468V13.9006H16.6981V11.9006ZM14.3468 9.92147H16.6981V7.92147H14.3468V9.92147ZM15.6981 8.92147V12.9006H17.6981V8.92147H15.6981ZM13.3572 10.911C13.3572 10.3645 13.8003 9.92147 14.3468 9.92147V7.92147C12.6957 7.92147 11.3572 9.25994 11.3572 10.911H13.3572ZM14.3468 11.9006C13.8003 11.9006 13.3572 11.4576 13.3572 10.911H11.3572C11.3572 12.5621 12.6957 13.9006 14.3468 13.9006V11.9006ZM6.7484 6.50699L11.8127 3.25133L10.7312 1.56898L5.66689 4.82463L6.7484 6.50699ZM10.4826 3.0241L13.0148 6.27975L14.5935 5.05187L12.0613 1.79622L10.4826 3.0241ZM2.95199 6.66581H15.2511V4.66581H2.95199V6.66581ZM15.2511 15.518H2.95199V17.518H15.2511V15.518ZM3.22852 15.7945V6.38929H1.22852V15.7945H3.22852ZM2.95199 15.518C3.10471 15.518 3.22852 15.6418 3.22852 15.7945H1.22852C1.22852 16.7464 2.00014 17.518 2.95199 17.518V15.518ZM14.9746 15.7945C14.9746 15.6418 15.0984 15.518 15.2511 15.518V17.518C16.203 17.518 16.9746 16.7464 16.9746 15.7945H14.9746ZM15.2511 6.66581C15.0984 6.66581 14.9746 6.54201 14.9746 6.38929H16.9746C16.9746 5.43744 16.203 4.66581 15.2511 4.66581V6.66581ZM2.95199 4.66581C2.00014 4.66581 1.22852 5.43744 1.22852 6.38929H3.22852C3.22852 6.54201 3.10471 6.66581 2.95199 6.66581V4.66581ZM14.9746 13.4432V15.7945H16.9746V13.4432H14.9746ZM14.9746 6.38929V8.28842H16.9746V6.38929H14.9746Z" fill="#191919"/>
</svg>
