<svg width="24" height="24" viewBox="0 0 24 24" fill="none" xmlns="http://www.w3.org/2000/svg">
<path d="M19.2431 13.3204C20.4645 14.233 21.5561 16.5307 21.5561 17.9464C21.5561 18.3875 21.2343 18.745 20.8374 18.745H20.3996M15.7735 9.57979C16.5636 9.12272 17.0952 8.26842 17.0952 7.28996C17.0952 6.3115 16.5636 5.4572 15.7735 5.00013M3.77051 18.745H16.4316C16.8285 18.745 17.1503 18.3875 17.1503 17.9464C17.1503 15.174 14.8341 12.9266 10.101 12.9266C5.36795 12.9266 3.05176 15.174 3.05176 17.9464C3.05176 18.3875 3.37355 18.745 3.77051 18.745ZM12.7445 7.28996C12.7445 8.74992 11.561 9.93344 10.101 9.93344C8.64108 9.93344 7.45755 8.74992 7.45755 7.28996C7.45755 5.83001 8.64108 4.64648 10.101 4.64648C11.561 4.64648 12.7445 5.83001 12.7445 7.28996Z" stroke="#1A1919" stroke-width="2" stroke-linecap="round"/>
</svg>
