<svg width="24" height="24" viewBox="-2 -2 24 24"  fill="none" xmlns="http://www.w3.org/2000/svg">
<path d="M15.4265 11.2709C16.3816 11.9845 17.2352 13.7812 17.2352 14.8882C17.2352 15.2331 16.9836 15.5127 16.6732 15.5127H16.3308M12.7134 8.34591C13.3313 7.9885 13.747 7.32047 13.747 6.55536C13.747 5.79025 13.3313 5.12223 12.7134 4.76482M3.32765 15.5127H13.228C13.5384 15.5127 13.7901 15.2331 13.7901 14.8882C13.7901 12.7204 11.9789 10.9629 8.27784 10.9629C4.57678 10.9629 2.76562 12.7204 2.76562 14.8882C2.76562 15.2331 3.01725 15.5127 3.32765 15.5127ZM10.3449 6.55536C10.3449 7.69698 9.41946 8.62244 8.27784 8.62244C7.13622 8.62244 6.21076 7.69698 6.21076 6.55536C6.21076 5.41375 7.13622 4.48828 8.27784 4.48828C9.41946 4.48828 10.3449 5.41375 10.3449 6.55536Z" stroke="#1A1919" stroke-width="2" stroke-linecap="round"/>
</svg>
