<svg width="24" height="24" viewBox="-2.5 -2.5 24 24" fill="none" xmlns="http://www.w3.org/2000/svg">
<path d="M8.87924 5.00135V7.11613C8.87924 7.50545 9.19484 7.82106 9.58416 7.82106H11.6989M13.1088 2.18164H8.17414C7.39551 2.18164 6.76429 2.81285 6.76429 3.59149V5.00135M13.1088 2.18164H13.5021C13.7006 2.18164 13.8895 2.26525 14.0263 2.40914C14.2318 2.62538 14.5574 2.95832 14.8711 3.23903C15.117 3.45904 15.5033 3.85387 15.7346 4.09383C15.8597 4.2236 15.9285 4.39687 15.9285 4.57712L15.9285 5.00135M13.1088 2.18164V4.29642C13.1088 4.68574 13.4244 5.00135 13.8137 5.00135H15.9285M15.9285 5.00135L15.9283 12.0507C15.9283 12.8293 15.2971 13.4605 14.5185 13.4605H11.6987M10.6416 6.05874C10.3278 5.77803 10.0023 5.44509 9.79673 5.22885C9.65996 5.08496 9.471 5.00135 9.27249 5.00135H3.94458C3.16594 5.00135 2.53473 5.63256 2.53472 6.4112L2.53467 14.8703C2.53466 15.6489 3.16587 16.2802 3.94452 16.2802L10.2889 16.2802C11.0675 16.2802 11.6987 15.649 11.6988 14.8704L11.6989 7.39683C11.6989 7.21658 11.6302 7.04331 11.5051 6.91354C11.2737 6.67358 10.8874 6.27875 10.6416 6.05874Z" stroke="#191919" stroke-width="2" stroke-linecap="round" stroke-linejoin="round"/>
</svg>
