<svg width="32" height="32" viewBox="0 0 32 32" fill="none" xmlns="http://www.w3.org/2000/svg">
<path fill-rule="evenodd" clip-rule="evenodd" d="M24.3168 6.37953C21.9308 3.99353 18.7789 2.69743 15.3914 2.66797C8.43955 2.66797 2.78385 8.32368 2.78385 15.2755C2.78385 17.4847 3.37299 19.6646 4.46289 21.5792L2.66602 28.1187L9.35271 26.3513C11.2085 27.3528 13.2705 27.883 15.3914 27.883C22.3432 27.883 27.9989 22.2273 27.9989 15.2755C28.0283 11.9469 26.7028 8.76553 24.3168 6.37953ZM15.3914 25.7916C13.5061 25.7916 11.6504 25.2908 10.0597 24.3187L9.67675 24.0831L5.70008 25.1141L6.76052 21.2552L6.52487 20.8723C5.46442 19.1932 4.93419 17.2786 4.93419 15.3049C4.93419 9.53141 9.64729 4.81832 15.4208 4.81832C18.2192 4.81832 20.8409 5.90822 22.8439 7.88182C24.8175 9.85543 25.9074 12.5065 25.9074 15.3049C25.878 21.0785 21.1943 25.7916 15.3914 25.7916ZM21.1649 17.9266C20.8409 17.7793 19.3091 17.0134 19.0145 16.8956C18.72 16.7778 18.5138 16.7483 18.3076 17.0429C18.1014 17.3669 17.4828 18.0739 17.306 18.2801C17.1293 18.4863 16.9526 18.5157 16.6285 18.3685C16.3045 18.2212 15.303 17.8677 14.0953 16.8072C13.1527 15.9825 12.5341 14.9515 12.3279 14.6274C12.1511 14.3034 12.2984 14.1561 12.4751 13.9794C12.6224 13.8321 12.7992 13.6259 12.9464 13.4197C13.0937 13.243 13.1526 13.0957 13.2705 12.8895C13.3883 12.6833 13.3294 12.5065 13.241 12.3298C13.1526 12.1825 12.5341 10.6213 12.2689 10.0027C12.0038 9.38413 11.7387 9.4725 11.562 9.4725C11.3852 9.4725 11.179 9.4725 10.9434 9.4725C10.7077 9.4725 10.3837 9.56087 10.0891 9.85543C9.79456 10.1795 8.99923 10.9453 8.99923 12.4771C8.99923 14.0383 10.1186 15.5406 10.2953 15.7468C10.4426 15.953 12.5046 19.1343 15.6859 20.5188C16.4518 20.8428 17.0115 21.049 17.4828 21.1963C18.2487 21.432 18.9262 21.4025 19.4564 21.3141C20.075 21.2258 21.3122 20.5483 21.5773 19.8118C21.8424 19.0754 21.8424 18.4568 21.754 18.3095C21.6951 18.1623 21.4595 18.1033 21.1649 17.9266Z" fill="url(#paint0_linear_701_920)"/>
<defs>
<linearGradient id="paint0_linear_701_920" x1="2.66556" y1="15.3923" x2="27.998" y2="15.3923" gradientUnits="userSpaceOnUse">
<stop stop-color="#FF375F"/>
<stop offset="1" stop-color="#FD9478"/>
</linearGradient>
</defs>
</svg>
