<svg width="32" height="32" viewBox="-3 -3 32 32" fill="none" xmlns="http://www.w3.org/2000/svg">
<path d="M13 2.3553C16.4565 2.3553 16.8847 2.3553 18.2612 2.41648C19.5153 2.47765 20.2188 2.69177 20.6776 2.8753C21.2894 3.12001 21.7176 3.3953 22.1765 3.85412C22.6353 4.31295 22.9106 4.74118 23.1553 5.35295C23.3388 5.81177 23.5529 6.48471 23.6141 7.76942C23.6753 9.14589 23.6753 9.54354 23.6753 13.0306C23.6753 16.4871 23.6753 16.9153 23.6141 18.2918C23.5529 19.5459 23.3388 20.2494 23.1553 20.7083C22.9106 21.32 22.6353 21.7483 22.1765 22.2071C21.7176 22.6659 21.2894 22.9412 20.6776 23.1859C20.2188 23.3694 19.5459 23.5836 18.2612 23.6447C16.8847 23.7059 16.4871 23.7059 13 23.7059C9.54353 23.7059 9.11529 23.7059 7.73882 23.6447C6.4847 23.5836 5.78118 23.3694 5.32236 23.1859C4.7106 22.9412 4.28235 22.6659 3.82353 22.2071C3.36471 21.7483 3.08941 21.32 2.8447 20.7083C2.66117 20.2494 2.44706 19.5765 2.38588 18.2918C2.3247 16.9153 2.3247 16.5177 2.3247 13.0306C2.3247 9.57413 2.3247 9.14589 2.38588 7.76942C2.44706 6.5153 2.66117 5.81177 2.8447 5.35295C3.08941 4.74118 3.36471 4.31295 3.82353 3.85412C4.28235 3.3953 4.7106 3.12001 5.32236 2.8753C5.78118 2.69177 6.45411 2.47765 7.73882 2.41648C9.11529 2.3553 9.54353 2.3553 13 2.3553ZM13 0C9.48235 0 9.02353 9.23872e-07 7.64706 0.0917657C6.27059 0.152942 5.32236 0.36706 4.49647 0.703531C3.64 1.04 2.90589 1.46824 2.20236 2.20236C1.46824 2.93648 1.04 3.64001 0.703526 4.49648C0.367055 5.32236 0.152937 6.27059 0.091761 7.64706C0.0305845 9.02354 0 9.48236 0 13C0 16.5177 -3.74019e-06 16.9765 0.091761 18.353C0.152937 19.7294 0.367055 20.6777 0.703526 21.5036C1.04 22.36 1.46824 23.0941 2.20236 23.7977C2.93647 24.5318 3.64 24.96 4.49647 25.2965C5.32236 25.633 6.27059 25.8471 7.64706 25.9083C9.02353 25.9694 9.48235 26 13 26C16.5176 26 16.9765 26 18.3529 25.9083C19.7294 25.8471 20.6776 25.633 21.5035 25.2965C22.36 24.96 23.0941 24.5318 23.7976 23.7977C24.5318 23.0636 24.96 22.36 25.2965 21.5036C25.6329 20.6777 25.8471 19.7294 25.9082 18.353C25.9694 16.9765 26 16.5177 26 13C26 9.48236 26 9.02354 25.9082 7.64706C25.8471 6.27059 25.6329 5.32236 25.2965 4.49648C24.96 3.64001 24.5318 2.90589 23.7976 2.20236C23.0635 1.46824 22.36 1.04 21.5035 0.703531C20.6776 0.36706 19.7294 0.152942 18.3529 0.0917657C16.9765 0.0305892 16.5176 0 13 0Z" fill="url(#paint0_linear_701_924)"/>
<path d="M13 6.33178C9.29881 6.33178 6.33176 9.32943 6.33176 13C6.33176 16.7012 9.3294 19.6683 13 19.6683C16.7012 19.6683 19.6682 16.6706 19.6682 13C19.6682 9.32943 16.7012 6.33178 13 6.33178ZM13 17.3436C10.6141 17.3436 8.65646 15.4165 8.65646 13C8.65646 10.5835 10.5835 8.65649 13 8.65649C15.4165 8.65649 17.3435 10.5835 17.3435 13C17.3435 15.4165 15.3859 17.3436 13 17.3436Z" fill="url(#paint1_linear_701_924)"/>
<path d="M19.9436 7.64706C20.8051 7.64706 21.5035 6.94863 21.5035 6.08707C21.5035 5.22551 20.8051 4.52707 19.9436 4.52707C19.082 4.52707 18.3836 5.22551 18.3836 6.08707C18.3836 6.94863 19.082 7.64706 19.9436 7.64706Z" fill="url(#paint2_linear_701_924)"/>
<defs>
<linearGradient id="paint0_linear_701_924" x1="-0.000472155" y1="12.999" x2="25.9986" y2="12.999" gradientUnits="userSpaceOnUse">
<stop stop-color="#FF375F"/>
<stop offset="1" stop-color="#FD9478"/>
</linearGradient>
<linearGradient id="paint1_linear_701_924" x1="-0.000472155" y1="12.999" x2="25.9986" y2="12.999" gradientUnits="userSpaceOnUse">
<stop stop-color="#FF375F"/>
<stop offset="1" stop-color="#FD9478"/>
</linearGradient>
<linearGradient id="paint2_linear_701_924" x1="-0.000472155" y1="12.999" x2="25.9986" y2="12.999" gradientUnits="userSpaceOnUse">
<stop stop-color="#FF375F"/>
<stop offset="1" stop-color="#FD9478"/>
</linearGradient>
</defs>
</svg>
