<svg width="32" height="32" viewBox="-4.5 -7.5 32 32" fill="none" xmlns="http://www.w3.org/2000/svg">
<path d="M22.5811 0.389088C22.4868 0.137549 22.3925 0.074672 22.2667 0.0432296C21.9208 -0.0825398 21.3863 0.106137 21.3863 0.106137C21.3863 0.106137 1.54608 7.24354 0.414149 8.0296C0.162609 8.18681 0.0997198 8.31256 0.0368347 8.40689C-0.15182 8.97285 0.445584 9.22442 0.445584 9.22442L5.57072 10.8908C5.57072 10.8908 5.75937 10.9223 5.82226 10.8908C6.98563 10.1677 17.5189 3.5019 18.1163 3.28181C18.2106 3.25037 18.2735 3.28179 18.2735 3.34468C18.022 4.19362 8.87219 12.3372 8.87219 12.3372C8.87219 12.3372 8.84074 12.3686 8.8093 12.4315L8.33766 17.4937C8.33766 17.4937 8.14901 19.0344 9.6897 17.4937C10.7902 16.3933 11.8592 15.4815 12.3623 15.0413C14.1231 16.2675 16.0096 17.5881 16.8271 18.3112C17.2359 18.6571 17.5818 18.72 17.8648 18.72C18.6508 18.6886 18.8709 17.8396 18.8709 17.8396C18.8709 17.8396 22.4868 3.28178 22.6126 1.33236C22.6126 1.1437 22.644 1.01797 22.644 0.892196C22.6126 0.6721 22.6126 0.483415 22.5811 0.389088Z" fill="url(#paint0_linear_701_917)"/>
<defs>
<linearGradient id="paint0_linear_701_917" x1="-0.000411211" y1="9.35924" x2="22.6428" y2="9.35924" gradientUnits="userSpaceOnUse">
<stop stop-color="#FF375F"/>
<stop offset="1" stop-color="#FD9478"/>
</linearGradient>
</defs>
</svg>
