<svg width="32" height="32" viewBox="0 0 32 32" fill="none" xmlns="http://www.w3.org/2000/svg">
<circle cx="16" cy="16" r="16" fill="#4C90E5"/>
<path d="M24.0588 9.42303C23.9913 9.24298 23.9237 9.19798 23.8337 9.17547C23.5862 9.08545 23.2036 9.2205 23.2036 9.2205C23.2036 9.2205 9.00263 14.3292 8.19243 14.8918C8.01239 15.0044 7.96737 15.0944 7.92236 15.1619C7.78733 15.567 8.21493 15.747 8.21493 15.747L11.8833 16.9398C11.8833 16.9398 12.0184 16.9623 12.0634 16.9398C12.8961 16.4222 20.4354 11.6511 20.863 11.4935C20.9305 11.471 20.9755 11.4935 20.9755 11.5385C20.7955 12.1462 14.2464 17.9751 14.2464 17.9751C14.2464 17.9751 14.2239 17.9976 14.2014 18.0426L13.8638 21.6659C13.8638 21.6659 13.7288 22.7687 14.8315 21.6659C15.6192 20.8782 16.3844 20.2256 16.7445 19.9105C18.0048 20.7882 19.3551 21.7334 19.9403 22.2511C20.2328 22.4986 20.4804 22.5436 20.683 22.5436C21.2456 22.5211 21.4031 21.9135 21.4031 21.9135C21.4031 21.9135 23.9913 11.4935 24.0813 10.0982C24.0813 9.96315 24.1038 9.87316 24.1038 9.78313C24.0813 9.6256 24.0813 9.49054 24.0588 9.42303Z" fill="white"/>
</svg>
