<svg width="40" height="39" viewBox="0 0 40 39" fill="none" xmlns="http://www.w3.org/2000/svg">
<path d="M31.6091 22.2402C33.6685 23.7789 35.5091 27.6531 35.5091 30.0401C35.5091 30.7838 34.9665 31.3867 34.2972 31.3867H33.5591M25.7591 15.9332C27.0913 15.1626 27.9876 13.7222 27.9876 12.0724C27.9876 10.4226 27.0913 8.98218 25.7591 8.21152M5.52096 31.3867H26.8686C27.5379 31.3867 28.0805 30.7838 28.0805 30.0401C28.0805 25.3657 24.1752 21.5762 16.1948 21.5762C8.21439 21.5762 4.30908 25.3657 4.30908 30.0401C4.30908 30.7838 4.85166 31.3867 5.52096 31.3867ZM20.6519 12.0724C20.6519 14.534 18.6564 16.5295 16.1948 16.5295C13.7332 16.5295 11.7377 14.534 11.7377 12.0724C11.7377 9.61077 13.7332 7.61523 16.1948 7.61523C18.6564 7.61523 20.6519 9.61077 20.6519 12.0724Z" stroke="#FF375F" stroke-width="2" stroke-linecap="round"/>
</svg>
