<svg width="181" height="49" viewBox="0 0 181 49" fill="none" xmlns="http://www.w3.org/2000/svg">
<path d="M98.667 13.2936C98.667 14.9592 98.3651 16.5624 97.8029 18.0302C97.2304 19.5501 96.3768 20.945 95.3149 22.1526C94.8257 22.7043 93.9825 22.7563 93.4307 22.2567C92.879 21.757 92.8374 20.9034 93.3266 20.3516C94.1699 19.4043 94.8465 18.2904 95.3046 17.0725C95.7522 15.9065 95.9916 14.6261 95.9916 13.2936C95.9916 10.3684 94.8153 7.72425 92.9206 5.8088C91.026 3.89336 88.4027 2.70661 85.5191 2.70661C82.6251 2.70661 80.0122 3.89336 78.1176 5.8088C76.2438 7.70343 75.0778 10.3059 75.0466 13.1895C75.0466 13.2312 75.0466 13.2624 75.0466 13.304C75.0466 16.2293 76.2229 18.8734 78.1176 20.7889C80.0122 22.7043 82.6355 23.891 85.5191 23.891C86.4664 23.891 87.3825 23.7661 88.2465 23.5267C88.4339 23.4746 88.6109 23.4226 88.7879 23.3601C88.5484 23.1519 88.309 22.9333 88.0904 22.7043C85.7065 20.2996 84.2387 16.9788 84.2387 13.304C84.2387 11.6384 84.5406 10.0353 85.1027 8.56746C85.6753 7.0476 86.5289 5.65265 87.5907 4.44509C88.08 3.89336 88.9232 3.84131 89.4749 4.34099C90.0266 4.84067 90.0683 5.69429 89.579 6.24603C88.7358 7.19334 88.0592 8.30721 87.6011 9.52519C87.1535 10.6911 86.914 11.9715 86.914 13.304C86.914 16.2293 88.0904 18.8734 89.985 20.7889C91.8796 22.7043 94.503 23.891 97.3866 23.891C100.281 23.891 102.893 22.7043 104.788 20.7889C106.683 18.8734 107.859 16.2188 107.859 13.304H107.849C107.849 10.3788 106.672 7.73466 104.778 5.81921C102.883 3.90377 100.26 2.71702 97.3761 2.71702C96.4288 2.71702 95.5127 2.84194 94.6487 3.08137C94.4613 3.13342 94.2844 3.18547 94.1074 3.24793C94.3468 3.45613 94.5863 3.67474 94.8049 3.90377C97.1992 6.29808 98.667 9.62929 98.667 13.2936ZM91.4528 25.1611C90.6617 25.5671 89.8185 25.9002 88.944 26.1396C87.851 26.4415 86.7059 26.5977 85.5191 26.5977C83.6037 26.5977 81.7715 26.1813 80.1267 25.4317L76.3375 32.0733C75.9731 32.7188 75.1507 32.9374 74.5157 32.573C73.8807 32.1983 73.6621 31.3759 74.0264 30.7304L77.8261 24.0784C77.2535 23.662 76.7226 23.204 76.2229 22.6939C73.839 20.2892 72.3712 16.9684 72.3712 13.2936C72.3712 13.252 72.3712 13.2103 72.3816 13.1687C72.4129 9.54601 73.8807 6.26685 76.2334 3.89336C78.5964 1.48864 81.886 0 85.5191 0C87.6532 0 89.6727 0.520502 91.4632 1.43659C92.2544 1.03059 93.0976 0.697473 93.9721 0.458042C95.0651 0.156151 96.2102 0 97.3866 0C101.02 0 104.309 1.48864 106.683 3.89336C109.067 6.29808 110.534 9.61888 110.534 13.2936C110.534 16.9684 109.067 20.2892 106.683 22.6939C104.299 25.0986 101.02 26.5872 97.3866 26.5872C95.2525 26.5872 93.2329 26.0772 91.4528 25.1611ZM138.506 5.3924C138.756 4.69493 139.526 4.33058 140.213 4.58042C140.901 4.83026 141.265 5.61101 141.015 6.30849L135.654 21.2157C135.404 21.9131 134.634 22.2775 133.947 22.0276C133.561 21.8819 133.28 21.58 133.145 21.2157V21.2053L129.033 9.79585L124.921 21.2157C124.671 21.9131 123.901 22.2775 123.214 22.0276C122.829 21.8819 122.548 21.58 122.412 21.2157V21.2053L117.051 6.30849C116.801 5.61101 117.155 4.83026 117.853 4.58042C118.55 4.33058 119.31 4.68452 119.56 5.3924L123.672 16.8122L127.784 5.40281V5.3924C127.919 5.02805 128.2 4.72616 128.585 4.58042C129.283 4.33058 130.043 4.68452 130.293 5.3924L134.405 16.8122L138.506 5.3924ZM177.325 1.39495C177.325 0.645423 177.929 0.0416402 178.668 0.0416402C179.407 0.0416402 180.011 0.645423 180.011 1.39495V13.3144C180.011 13.3561 180.011 13.3977 180.001 13.4498C179.969 15.969 178.949 18.2384 177.315 19.8936C175.649 21.58 173.349 22.621 170.809 22.621V22.6106C168.269 22.6106 165.968 21.5696 164.302 19.8936C162.637 18.2072 161.606 15.8857 161.606 13.3144C161.606 10.7432 162.637 8.42172 164.292 6.7353C165.957 5.04887 168.258 4.00787 170.798 4.00787C173.338 4.00787 175.639 5.04887 177.304 6.7353L177.315 6.75612V1.39495H177.325ZM177.325 13.4185C177.325 13.3873 177.325 13.3457 177.325 13.3144C177.325 11.4927 176.597 9.8479 175.42 8.65075C174.244 7.45359 172.609 6.72489 170.809 6.72489C169.008 6.72489 167.384 7.464 166.197 8.65075C165.01 9.8479 164.281 11.4927 164.281 13.3144H164.292C164.292 15.1362 165.021 16.781 166.197 17.9781C167.384 19.1753 169.008 19.9144 170.809 19.9144V19.904C172.609 19.904 174.233 19.1649 175.42 17.9781C176.576 16.8018 177.304 15.1987 177.325 13.4185ZM155.766 17.9781C156.287 17.4472 157.14 17.4472 157.661 17.9781C158.181 18.5091 158.181 19.3627 157.661 19.8936C156.817 20.7472 155.808 21.4343 154.673 21.9131C153.59 22.3712 152.393 22.621 151.154 22.621V22.6106C148.614 22.6106 146.314 21.5696 144.648 19.8936C142.983 18.2072 141.952 15.8857 141.952 13.3144C141.952 13.2728 141.952 13.2312 141.962 13.1791C141.994 10.6599 143.014 8.39049 144.648 6.7353C146.314 5.04887 148.614 4.00787 151.154 4.00787C153.694 4.00787 155.995 5.04887 157.661 6.7353C159.326 8.42172 160.357 10.7432 160.357 13.3144C160.357 14.064 159.753 14.6677 159.014 14.6677H144.773C145.033 15.9482 145.668 17.0829 146.543 17.9781C147.73 19.1753 149.353 19.9144 151.154 19.9144V19.904C152.039 19.904 152.882 19.727 153.642 19.4043C154.444 19.0816 155.162 18.5923 155.766 17.9781ZM146.543 8.65075C145.658 9.54601 145.033 10.6807 144.763 11.9611H157.525C157.265 10.6807 156.63 9.54601 155.756 8.65075C154.579 7.45359 152.945 6.72489 151.144 6.72489C149.343 6.72489 147.73 7.464 146.543 8.65075ZM38.8093 17.9781C39.3298 17.4472 40.1834 17.4472 40.7039 17.9781C41.2244 18.5091 41.2244 19.3627 40.7039 19.8936C39.8607 20.7472 38.8509 21.4343 37.7162 21.9131C36.6232 22.3712 35.4364 22.621 34.1976 22.621V22.6106C31.6576 22.6106 29.3569 21.5696 27.6913 19.8936C26.0257 18.2072 24.9951 15.8857 24.9951 13.3144C24.9951 10.7432 26.0257 8.42172 27.6913 6.7353C29.3569 5.04887 31.6576 4.00787 34.1976 4.00787C36.7377 4.00787 39.0383 5.04887 40.7039 6.7353C42.3695 8.42172 43.4001 10.7432 43.4001 13.3144C43.4001 14.064 42.7963 14.6677 42.0572 14.6677H27.8163C28.0765 15.9482 28.7115 17.0829 29.586 17.9781C30.7727 19.1753 32.3967 19.9144 34.1976 19.9144V19.904C35.0825 19.904 35.9257 19.727 36.6856 19.4043C37.4872 19.0816 38.1951 18.5923 38.8093 17.9781ZM29.586 8.65075C28.7115 9.5356 28.0765 10.6807 27.8163 11.9611H40.579C40.3187 10.6807 39.6837 9.54601 38.8093 8.65075C37.6329 7.45359 35.9986 6.72489 34.1976 6.72489C32.3967 6.72489 30.7623 7.464 29.586 8.65075ZM53.8414 22.6106C51.3013 22.6106 49.0007 21.5696 47.3351 19.8936C45.6695 18.2072 44.6389 15.8857 44.6389 13.3144C44.6389 10.7432 45.6695 8.42172 47.3351 6.7353C49.0007 5.04887 51.3013 4.00787 53.8414 4.00787C56.3814 4.00787 58.682 5.04887 60.3476 6.7353L60.3685 6.75612V1.39495C60.3685 0.645423 60.9722 0.0416402 61.7113 0.0416402C62.4505 0.0416402 63.0542 0.645423 63.0542 1.39495V13.3144C63.0542 13.3561 63.0542 13.3977 63.0438 13.4498C63.0126 15.969 61.9924 18.2384 60.358 19.8936C58.682 21.5696 56.3814 22.6106 53.8414 22.6106ZM49.2297 17.9781C50.4165 19.1753 52.0404 19.9144 53.8414 19.9144C55.6423 19.9144 57.2663 19.1753 58.453 17.9886C59.6085 16.8122 60.3372 15.2091 60.3685 13.4394C60.3685 13.4081 60.3685 13.3665 60.3685 13.3353C60.3685 11.5135 59.6398 9.86872 58.4634 8.67157C57.2871 7.47441 55.6527 6.74571 53.8518 6.74571C52.0508 6.74571 50.4269 7.48482 49.2401 8.67157C48.0638 9.86872 47.3351 11.5135 47.3351 13.3353C47.3351 15.157 48.0534 16.781 49.2297 17.9781ZM21.5494 5.3924C21.7993 4.69493 22.5696 4.33058 23.2567 4.58042C23.9541 4.83026 24.3081 5.61101 24.0582 6.30849L18.6867 21.2157C18.4368 21.9131 17.6665 22.2775 16.9794 22.0276C16.5942 21.8819 16.3132 21.58 16.1778 21.2157V21.2053L12.0659 9.79585L7.96432 21.2157C7.70407 21.9131 6.94413 22.2775 6.24666 22.0276C5.86149 21.8819 5.58042 21.58 5.44509 21.2157V21.2053L0.0839175 6.30849C-0.165923 5.61101 0.188018 4.83026 0.885491 4.58042C1.58296 4.33058 2.3429 4.68452 2.59274 5.3924L6.7047 16.8122L10.8167 5.40281V5.3924C10.952 5.02805 11.2331 4.72616 11.6182 4.58042C12.3157 4.33058 13.0756 4.68452 13.3255 5.3924L17.4375 16.8122L21.5494 5.3924ZM80.2933 16.3854C80.6576 17.0308 80.439 17.8532 79.804 18.228C79.169 18.6027 78.3466 18.3737 77.9822 17.7283C76.7747 15.6255 76.5352 13.2208 77.1078 11.0555C77.6804 8.87977 79.0857 6.92268 81.1677 5.7047C81.8027 5.32994 82.6251 5.55896 82.9895 6.20438C83.3538 6.84981 83.1352 7.6722 82.5002 8.04696C81.0636 8.89018 80.0955 10.2435 79.6895 11.7529C79.2939 13.2624 79.4605 14.928 80.2933 16.3854Z" fill="white"/>
<path d="M22.1838 45.9175C21.3197 45.9175 20.6327 45.6469 20.1434 45.0951C19.6541 44.5434 19.4043 43.7835 19.4043 42.8049C19.4043 41.7952 19.6645 41.0144 20.1746 40.4523C20.6847 39.8901 21.3822 39.6091 22.2671 39.6091C22.7876 39.6091 23.2977 39.7027 23.7765 39.8797L23.6204 40.369C23.0999 40.192 22.6418 40.1087 22.2462 40.1087C21.4967 40.1087 20.9346 40.3378 20.5494 40.8062C20.1642 41.2643 19.9769 41.9305 19.9769 42.7945C19.9769 43.6169 20.1642 44.2623 20.5494 44.7204C20.9346 45.1784 21.4655 45.4179 22.163 45.4179C22.7147 45.4179 23.2248 45.3242 23.7036 45.1264V45.6365C23.3185 45.8238 22.8084 45.9175 22.1838 45.9175Z" fill="white"/>
<path d="M29.9184 41.1914C29.9184 41.5766 29.8247 41.8784 29.6374 42.0971C29.45 42.3157 29.1377 42.4614 28.7109 42.5551V42.5967C29.2001 42.6488 29.5541 42.7945 29.7727 43.0236C29.9913 43.2422 30.1058 43.5649 30.1058 43.9917C30.1058 44.5746 29.908 45.0327 29.5229 45.345C29.1377 45.6573 28.5755 45.8134 27.8364 45.8134H25.2652V39.734H27.8468C28.5443 39.734 29.0648 39.8589 29.4083 40.1087C29.7519 40.3482 29.9184 40.7125 29.9184 41.1914ZM29.5124 43.9709C29.5124 43.2213 28.9399 42.857 27.7948 42.857H25.8169V45.2825H27.8781C28.9607 45.2825 29.5124 44.8453 29.5124 43.9709ZM29.3355 41.233C29.3355 40.8791 29.2106 40.6292 28.9503 40.4731C28.7005 40.3169 28.3153 40.2441 27.8052 40.2441H25.8169V42.3261H27.7531C28.3153 42.3261 28.7213 42.2428 28.9711 42.0658C29.2106 41.8889 29.3355 41.6182 29.3355 41.233Z" fill="white"/>
<path d="M35.4878 45.803L35.3525 44.8453H35.3108C35.0089 45.2409 34.6862 45.5115 34.3635 45.6781C34.0408 45.8343 33.6661 45.9175 33.2184 45.9175C32.625 45.9175 32.1566 45.7614 31.8235 45.4595C31.4904 45.1576 31.3238 44.7308 31.3238 44.1895C31.3238 43.5961 31.5736 43.1381 32.0629 42.8049C32.5626 42.4718 33.2705 42.3053 34.2074 42.2844L35.3629 42.2532V41.8472C35.3629 41.2643 35.2484 40.8374 35.0089 40.5355C34.7695 40.2441 34.3948 40.0983 33.8743 40.0983C33.3121 40.0983 32.7291 40.2545 32.1254 40.5668L31.9172 40.0879C32.5834 39.7756 33.2392 39.6195 33.8951 39.6195C34.5613 39.6195 35.061 39.7964 35.3837 40.14C35.7168 40.4835 35.8834 41.0248 35.8834 41.7639V45.803H35.4878ZM33.2601 45.4074C33.9055 45.4074 34.4156 45.2201 34.7903 44.8557C35.1651 44.481 35.3525 43.9709 35.3525 43.3046V42.7112L34.2907 42.7529C33.437 42.7945 32.8228 42.9299 32.4585 43.1589C32.0941 43.3775 31.9172 43.7314 31.9172 44.2103C31.9172 44.5955 32.0317 44.8869 32.2607 45.0951C32.5001 45.3033 32.8333 45.4074 33.2601 45.4074Z" fill="white"/>
<path d="M42.8893 47.8642H42.3376V45.803H37.6843V47.8642H37.1326V45.2825H37.5386C38.0487 44.5746 38.4339 43.7418 38.7149 42.8049C38.9856 41.868 39.1313 40.8374 39.1521 39.734H42.0774V45.2825H42.8893V47.8642ZM41.5256 45.2825V40.2441H39.631C39.5373 42.2636 39.048 43.9396 38.1632 45.2825H41.5256Z" fill="white"/>
<path d="M46.6994 45.9175C45.8146 45.9175 45.1275 45.6469 44.6278 45.1056C44.1386 44.5642 43.8887 43.7939 43.8887 42.8153C43.8887 41.8472 44.1281 41.0665 44.607 40.4939C45.0859 39.9109 45.7313 39.6195 46.5329 39.6195C47.2512 39.6195 47.8133 39.8693 48.2297 40.369C48.6461 40.8687 48.8543 41.5453 48.8543 42.3989V42.8466H44.4717C44.4821 43.6794 44.6695 44.3144 45.0546 44.762C45.4398 45.1992 45.9915 45.4179 46.6994 45.4179C47.043 45.4179 47.3448 45.397 47.6155 45.345C47.8758 45.2929 48.2089 45.1888 48.6149 45.0327V45.5324C48.2713 45.6781 47.959 45.7822 47.6676 45.8343C47.3657 45.8863 47.043 45.9175 46.6994 45.9175ZM46.5329 40.0983C45.9499 40.0983 45.4814 40.2961 45.1275 40.6813C44.7736 41.0665 44.5654 41.6182 44.5029 42.3469H48.2609C48.2609 41.639 48.1048 41.0977 47.8029 40.7021C47.501 40.2961 47.0742 40.0983 46.5329 40.0983Z" fill="white"/>
<path d="M50.2492 42.1491C50.2492 39.505 50.9884 38.0059 52.477 37.6416C52.9975 37.5062 53.4972 37.4021 53.976 37.3084C54.4549 37.2147 54.8817 37.1315 55.2461 37.0586L55.3502 37.5375L54.6839 37.6624C53.5805 37.8706 52.8413 38.0267 52.4874 38.1412C51.9877 38.287 51.5921 38.6305 51.3007 39.1822C51.0196 39.734 50.853 40.4939 50.8114 41.4516H50.8426C51.2382 40.9832 51.6338 40.6396 52.0085 40.4419C52.3833 40.2337 52.7685 40.1296 53.1745 40.1296C53.924 40.1296 54.4861 40.369 54.8817 40.8479C55.2773 41.3267 55.4751 42.0138 55.4751 42.8986C55.4751 43.8459 55.2461 44.5746 54.788 45.1056C54.33 45.6261 53.695 45.8967 52.8726 45.8967C52.0398 45.8967 51.3839 45.574 50.9259 44.9182C50.4783 44.2832 50.2492 43.3567 50.2492 42.1491ZM52.935 45.4074C53.57 45.4074 54.0593 45.1992 54.3924 44.7724C54.736 44.3456 54.9025 43.7314 54.9025 42.9403C54.9025 42.1803 54.7464 41.6182 54.4445 41.233C54.1426 40.8479 53.7054 40.6501 53.1224 40.6501C52.6852 40.6501 52.2688 40.7854 51.8628 41.056C51.4568 41.3267 51.1029 41.7015 50.801 42.1699C50.801 42.8362 50.8843 43.4191 51.0508 43.9292C51.2174 44.4289 51.4568 44.8037 51.7795 45.0431C52.1022 45.2929 52.4874 45.4074 52.935 45.4074Z" fill="white"/>
<path d="M57.7653 39.7236V42.3885H61.6274V39.7236H62.1792V45.803H61.6274V42.8778H57.7653V45.803H57.2136V39.7236H57.7653Z" fill="white"/>
<path d="M64.8233 42.2844H66.7596C68.1857 42.2844 68.904 42.8466 68.904 43.9709C68.904 44.5538 68.7063 45.0015 68.3107 45.3242C67.9047 45.6469 67.3321 45.803 66.5826 45.803H64.2716V39.7236H64.8233V42.2844ZM64.8233 42.8153V45.2825H66.6763C67.1968 45.2825 67.6028 45.168 67.8943 44.9494C68.1753 44.7308 68.3211 44.3977 68.3211 43.9605C68.3211 43.5545 68.1962 43.263 67.9463 43.086C67.6965 42.8986 67.2593 42.8153 66.6451 42.8153H64.8233ZM70.5072 45.803H69.9555V39.7236H70.5072V45.803Z" fill="white"/>
<path d="M73.1409 39.7236V44.1166L73.1097 45.2617L76.7116 39.7236H77.4507V45.803H76.9198V41.4412L76.9406 40.2649L73.3387 45.803H72.6204V39.7236H73.1409ZM75.0356 38.8595C74.4838 38.8595 74.057 38.7346 73.7655 38.4952C73.474 38.2453 73.3075 37.8498 73.2554 37.298H73.7447C73.7968 37.704 73.9321 37.9955 74.1299 38.1725C74.3277 38.339 74.6296 38.4223 75.046 38.4223C75.452 38.4223 75.7643 38.339 75.962 38.1621C76.1598 37.9851 76.2848 37.704 76.3264 37.298H76.8157C76.7428 38.339 76.1494 38.8595 75.0356 38.8595Z" fill="white"/>
<path d="M87.6109 42.7529C87.6109 43.7418 87.3715 44.5226 86.8926 45.0743C86.4137 45.6261 85.7475 45.9071 84.9043 45.9071C84.3734 45.9071 83.9049 45.7822 83.4989 45.522C83.0929 45.2617 82.7806 44.8974 82.562 44.4185C82.3434 43.9396 82.2393 43.3775 82.2393 42.7529C82.2393 41.7639 82.4787 40.9936 82.9576 40.4419C83.4365 39.8901 84.1027 39.6091 84.9355 39.6091C85.7683 39.6091 86.4241 39.8901 86.903 40.4523C87.3715 41.0144 87.6109 41.7743 87.6109 42.7529ZM82.8119 42.7529C82.8119 43.5857 82.9992 44.2415 83.3636 44.71C83.7279 45.1784 84.2484 45.4074 84.9251 45.4074C85.6017 45.4074 86.1118 45.1784 86.4762 44.71C86.8405 44.2415 87.0279 43.5857 87.0279 42.7529C87.0279 41.9097 86.8405 41.2643 86.4658 40.8062C86.1014 40.3482 85.5809 40.1087 84.9043 40.1087C84.238 40.1087 83.7175 40.3378 83.3532 40.8062C82.9888 41.2643 82.8119 41.9097 82.8119 42.7529Z" fill="white"/>
<path d="M89.9011 39.7236V42.3885H93.7632V39.7236H94.3149V45.803H93.7632V42.8778H89.9011V45.803H89.3494V39.7236H89.9011Z" fill="white"/>
<path d="M100.613 45.803H100.061V40.2441H97.9064C97.7919 41.7119 97.6566 42.8362 97.49 43.6169C97.3339 44.3873 97.1257 44.9598 96.8654 45.3242C96.6156 45.6885 96.2824 45.8655 95.8765 45.8655C95.7307 45.8655 95.6058 45.8551 95.4913 45.8238V45.3242C95.5642 45.345 95.6578 45.3554 95.7932 45.3554C96.2096 45.3554 96.5531 44.9078 96.8134 44.0229C97.0736 43.1276 97.2714 41.7015 97.4067 39.734H100.603V45.803H100.613Z" fill="white"/>
<path d="M106.391 45.803L106.255 44.8453H106.214C105.912 45.2409 105.589 45.5115 105.266 45.6781C104.944 45.8343 104.569 45.9175 104.132 45.9175C103.538 45.9175 103.07 45.7614 102.737 45.4595C102.404 45.1576 102.237 44.7308 102.237 44.1895C102.237 43.5961 102.487 43.1381 102.976 42.8049C103.476 42.4718 104.184 42.3053 105.121 42.2844L106.276 42.2532V41.8472C106.276 41.2643 106.162 40.8374 105.922 40.5355C105.693 40.2441 105.308 40.0983 104.787 40.0983C104.225 40.0983 103.642 40.2545 103.039 40.5668L102.83 40.0879C103.497 39.7756 104.163 39.6195 104.808 39.6195C105.475 39.6195 105.974 39.7964 106.297 40.14C106.63 40.4835 106.797 41.0248 106.797 41.7639V45.803H106.391ZM104.163 45.4074C104.808 45.4074 105.318 45.2201 105.693 44.8557C106.068 44.481 106.255 43.9709 106.255 43.3046V42.7112L105.193 42.7529C104.34 42.7945 103.736 42.9299 103.361 43.1589C102.997 43.3775 102.82 43.7314 102.82 44.2103C102.82 44.5955 102.934 44.8869 103.163 45.0951C103.403 45.3033 103.736 45.4074 104.163 45.4074Z" fill="white"/>
<path d="M109.357 39.7236V44.1166L109.326 45.2617L112.928 39.7236H113.667V45.803H113.136V41.4412L113.157 40.2649L109.555 45.803H108.837V39.7236H109.357ZM111.252 38.8595C110.7 38.8595 110.274 38.7346 109.982 38.4952C109.691 38.2453 109.524 37.8498 109.472 37.298H109.961C110.013 37.704 110.138 37.9955 110.336 38.1725C110.534 38.339 110.836 38.4223 111.252 38.4223C111.658 38.4223 111.96 38.339 112.168 38.1621C112.366 37.9851 112.491 37.704 112.533 37.298H113.022C112.959 38.339 112.366 38.8595 111.252 38.8595Z" fill="white"/>
<path d="M116.322 39.7236V42.3885H120.184V39.7236H120.736V45.803H120.184V42.8778H116.322V45.803H115.77V39.7236H116.322Z" fill="white"/>
<path d="M122.318 42.9403V42.4822H124.973V42.9403H122.318Z" fill="white"/>
<path d="M129.001 45.9175C128.137 45.9175 127.45 45.6469 126.961 45.0951C126.472 44.5434 126.222 43.7835 126.222 42.8049C126.222 41.7952 126.482 41.0144 126.992 40.4523C127.502 39.8901 128.2 39.6091 129.084 39.6091C129.605 39.6091 130.115 39.7027 130.594 39.8797L130.448 40.369C129.928 40.192 129.47 40.1087 129.074 40.1087C128.325 40.1087 127.762 40.3378 127.377 40.8062C126.992 41.2643 126.805 41.9305 126.805 42.7945C126.805 43.6169 126.992 44.2623 127.377 44.7204C127.762 45.1784 128.293 45.4179 128.991 45.4179C129.543 45.4179 130.053 45.3242 130.531 45.1264V45.6365C130.136 45.8238 129.626 45.9175 129.001 45.9175Z" fill="white"/>
<path d="M134.529 45.9175C133.644 45.9175 132.957 45.6469 132.457 45.1056C131.968 44.5642 131.718 43.7939 131.718 42.8153C131.718 41.8472 131.958 41.0665 132.437 40.4939C132.915 39.9109 133.561 39.6195 134.362 39.6195C135.081 39.6195 135.643 39.8693 136.059 40.369C136.476 40.8687 136.684 41.5453 136.684 42.3989V42.8466H132.301C132.312 43.6794 132.499 44.3144 132.884 44.762C133.269 45.1992 133.821 45.4179 134.529 45.4179C134.872 45.4179 135.174 45.397 135.445 45.345C135.705 45.2929 136.049 45.1888 136.444 45.0327V45.5324C136.101 45.6781 135.789 45.7822 135.497 45.8343C135.206 45.8863 134.883 45.9175 134.529 45.9175ZM134.373 40.0983C133.79 40.0983 133.321 40.2961 132.967 40.6813C132.613 41.0665 132.405 41.6182 132.343 42.3469H136.101C136.101 41.639 135.945 41.0977 135.643 40.7021C135.331 40.2961 134.914 40.0983 134.373 40.0983Z" fill="white"/>
<path d="M141.014 45.9175C140.077 45.9175 139.401 45.5636 138.974 44.8661H138.932L138.953 45.3346C138.964 45.6052 138.974 45.9175 138.974 46.2402V48.5513H138.422V39.7236H138.891L138.995 40.5876H139.026C139.442 39.9318 140.109 39.5986 141.025 39.5986C141.847 39.5986 142.472 39.8693 142.899 40.4106C143.325 40.952 143.544 41.7327 143.544 42.7633C143.544 43.7627 143.315 44.533 142.857 45.0847C142.42 45.6365 141.795 45.9175 141.014 45.9175ZM141.004 45.4179C141.629 45.4179 142.107 45.1888 142.441 44.7204C142.784 44.2623 142.951 43.6065 142.951 42.7841C142.951 40.9936 142.305 40.1087 141.014 40.1087C140.307 40.1087 139.786 40.3065 139.453 40.6917C139.12 41.0769 138.953 41.7119 138.953 42.5967V42.7737C138.953 43.721 139.109 44.3977 139.432 44.8141C139.765 45.2201 140.286 45.4179 141.004 45.4179Z" fill="white"/>
<path d="M149.957 41.1914C149.957 41.5766 149.863 41.8784 149.676 42.0971C149.488 42.3157 149.176 42.4614 148.749 42.5551V42.5967C149.238 42.6488 149.592 42.7945 149.8 43.0236C150.019 43.2422 150.134 43.5649 150.134 43.9917C150.134 44.5746 149.936 45.0327 149.551 45.345C149.165 45.6573 148.603 45.8134 147.864 45.8134H145.303V39.734H147.885C148.582 39.734 149.093 39.8589 149.447 40.1087C149.78 40.3482 149.957 40.7125 149.957 41.1914ZM149.551 43.9709C149.551 43.2213 148.978 42.857 147.833 42.857H145.855V45.2825H147.916C148.999 45.2825 149.551 44.8453 149.551 43.9709ZM149.374 41.233C149.374 40.8791 149.249 40.6292 148.988 40.4731C148.739 40.3169 148.353 40.2441 147.843 40.2441H145.845V42.3261H147.781C148.343 42.3261 148.749 42.2428 148.999 42.0658C149.249 41.8889 149.374 41.6182 149.374 41.233Z" fill="white"/>
<path d="M152.361 39.7236V44.1166L152.33 45.2617L155.932 39.7236H156.671V45.803H156.14V41.4412L156.161 40.2649L152.559 45.803H151.841V39.7236H152.361Z" fill="white"/>
<path d="M161.199 45.9175C160.325 45.9175 159.648 45.6469 159.159 45.0951C158.67 44.5434 158.42 43.7835 158.42 42.8049C158.42 41.7952 158.67 41.0144 159.19 40.4523C159.7 39.8901 160.398 39.6091 161.283 39.6091C161.803 39.6091 162.313 39.7027 162.792 39.8797L162.636 40.369C162.105 40.192 161.658 40.1087 161.262 40.1087C160.512 40.1087 159.95 40.3378 159.565 40.8062C159.18 41.2643 158.993 41.9305 158.993 42.7945C158.993 43.6169 159.18 44.2623 159.565 44.7204C159.95 45.1784 160.481 45.4179 161.179 45.4179C161.73 45.4179 162.24 45.3242 162.719 45.1264V45.6365C162.345 45.8238 161.834 45.9175 161.199 45.9175Z" fill="white"/>
</svg>
