<svg width="173" height="47" viewBox="0 0 173 47" fill="none" xmlns="http://www.w3.org/2000/svg">
<path d="M94.8224 13.0143C94.8224 14.5953 94.5323 16.1169 93.992 17.5101C93.4418 18.9527 92.6214 20.2768 91.6009 21.4229C91.1307 21.9466 90.3203 21.996 89.79 21.5218C89.2598 21.0475 89.2197 20.2372 89.69 19.7136C90.5004 18.8144 91.1507 17.7571 91.5909 16.6011C92.0211 15.4944 92.2512 14.2791 92.2512 13.0143C92.2512 10.2378 91.1207 7.72808 89.2998 5.91C87.4789 4.09192 84.9577 2.96551 82.1864 2.96551C79.405 2.96551 76.8938 4.09192 75.0729 5.91C73.2721 7.70832 72.1515 10.1785 72.1215 12.9155C72.1215 12.9551 72.1215 12.9847 72.1215 13.0242C72.1215 15.8007 73.2521 18.3105 75.0729 20.1286C76.8938 21.9466 79.415 23.0731 82.1864 23.0731C83.0968 23.0731 83.9772 22.9545 84.8076 22.7272C84.9877 22.6778 85.1578 22.6284 85.3279 22.5691C85.0978 22.3715 84.8677 22.164 84.6576 21.9466C82.3664 19.6642 80.9558 16.5122 80.9558 13.0242C80.9558 11.4433 81.2459 9.92163 81.7862 8.52843C82.3364 7.08582 83.1568 5.76179 84.1773 4.61561C84.6475 4.09192 85.4579 4.04252 85.9882 4.5168C86.5184 4.99108 86.5585 5.80131 86.0882 6.325C85.2778 7.22416 84.6275 8.28141 84.1873 9.43747C83.7571 10.5441 83.527 11.7595 83.527 13.0242C83.527 15.8007 84.6575 18.3105 86.4784 20.1286C88.2993 21.9466 90.8205 23.0731 93.5918 23.0731C96.3732 23.0731 98.8844 21.9466 100.705 20.1286C102.526 18.3105 103.657 15.7909 103.657 13.0242H103.647C103.647 10.2477 102.516 7.73796 100.695 5.91988C98.8744 4.10181 96.3532 2.97539 93.5818 2.97539C92.6714 2.97539 91.791 3.09396 90.9606 3.32122C90.7805 3.37062 90.6104 3.42003 90.4403 3.47931C90.6704 3.67693 90.9006 3.88443 91.1106 4.10181C93.4118 6.3744 94.8224 9.53628 94.8224 13.0143ZM87.8891 24.2785C87.1287 24.6639 86.3184 24.9801 85.4779 25.2073C84.4274 25.4939 83.3269 25.6421 82.1864 25.6421C80.3455 25.6421 78.5846 25.2468 77.0039 24.5354L73.3621 30.8394C73.012 31.452 72.2216 31.6595 71.6113 31.3137C71.001 30.958 70.7909 30.1774 71.1411 29.5648L74.7928 23.2509C74.2425 22.8557 73.7323 22.4209 73.2521 21.9368C70.961 19.6543 69.5503 16.5023 69.5503 13.0143C69.5503 12.9748 69.5503 12.9353 69.5603 12.8958C69.5903 9.45723 71.001 6.34476 73.2621 4.09192C75.5332 1.80945 78.6947 0.396484 82.1864 0.396484C84.2374 0.396484 86.1783 0.890527 87.8991 1.76004C88.6595 1.37469 89.4699 1.0585 90.3103 0.831242C91.3608 0.544697 92.4613 0.396484 93.5918 0.396484C97.0835 0.396484 100.245 1.80945 102.526 4.09192C104.817 6.3744 106.228 9.5264 106.228 13.0143C106.228 16.5023 104.817 19.6543 102.526 21.9368C100.235 24.2192 97.0835 25.6322 93.5918 25.6322C91.5409 25.6322 89.5999 25.148 87.8891 24.2785ZM133.111 5.51477C133.351 4.85275 134.091 4.50692 134.752 4.74406C135.412 4.9812 135.762 5.72227 135.522 6.38428L130.37 20.5337C130.129 21.1957 129.389 21.5415 128.729 21.3044C128.359 21.166 128.088 20.8795 127.958 20.5337V20.5238L124.006 9.69437L120.055 20.5337C119.814 21.1957 119.074 21.5415 118.414 21.3044C118.044 21.166 117.773 20.8795 117.643 20.5337V20.5238L112.491 6.38428C112.251 5.72227 112.591 4.9812 113.261 4.74406C113.932 4.50692 114.662 4.84287 114.902 5.51477L118.854 16.3541L122.806 5.52465V5.51477C122.936 5.16894 123.206 4.88239 123.576 4.74406C124.247 4.50692 124.977 4.84287 125.217 5.51477L129.169 16.3541L133.111 5.51477ZM170.419 1.72052C170.419 1.0091 170.999 0.436008 171.709 0.436008C172.42 0.436008 173 1.0091 173 1.72052V13.0341C173 13.0736 173 13.1131 172.99 13.1626C172.96 15.5537 171.98 17.7077 170.409 19.2788C168.808 20.8795 166.597 21.8676 164.156 21.8676V21.8577C161.715 21.8577 159.504 20.8696 157.903 19.2788C156.302 17.6781 155.312 15.4747 155.312 13.0341C155.312 10.5935 156.302 8.3901 157.893 6.7894C159.494 5.1887 161.705 4.20061 164.146 4.20061C166.587 4.20061 168.798 5.1887 170.399 6.7894L170.409 6.80916V1.72052H170.419ZM170.419 13.1329C170.419 13.1033 170.419 13.0637 170.419 13.0341C170.419 11.305 169.718 9.74378 168.588 8.60748C167.457 7.47118 165.887 6.77952 164.156 6.77952C162.425 6.77952 160.864 7.48106 159.724 8.60748C158.583 9.74378 157.883 11.305 157.883 13.0341H157.893C157.893 14.7633 158.593 16.3244 159.724 17.4607C160.864 18.597 162.425 19.2986 164.156 19.2986V19.2887C165.887 19.2887 167.447 18.5871 168.588 17.4607C169.698 16.3442 170.399 14.8225 170.419 13.1329ZM149.699 17.4607C150.199 16.9568 151.019 16.9568 151.52 17.4607C152.02 17.9646 152.02 18.7749 151.52 19.2788C150.709 20.089 149.739 20.7412 148.648 21.1957C147.608 21.6304 146.457 21.8676 145.267 21.8676V21.8577C142.826 21.8577 140.614 20.8696 139.014 19.2788C137.413 17.6781 136.422 15.4747 136.422 13.0341C136.422 12.9946 136.422 12.9551 136.432 12.9056C136.462 10.5145 137.443 8.36046 139.014 6.7894C140.614 5.1887 142.826 4.20061 145.267 4.20061C147.708 4.20061 149.919 5.1887 151.52 6.7894C153.12 8.3901 154.111 10.5935 154.111 13.0341C154.111 13.7455 153.531 14.3186 152.82 14.3186H139.134C139.384 15.534 139.994 16.611 140.835 17.4607C141.975 18.597 143.536 19.2986 145.267 19.2986V19.2887C146.117 19.2887 146.927 19.1207 147.658 18.8144C148.428 18.5081 149.119 18.0437 149.699 17.4607ZM140.835 8.60748C139.984 9.45723 139.384 10.5342 139.124 11.7496H151.39C151.14 10.5342 150.529 9.45723 149.689 8.60748C148.558 7.47118 146.988 6.77952 145.257 6.77952C143.526 6.77952 141.975 7.48106 140.835 8.60748ZM37.2948 17.4607C37.795 16.9568 38.6154 16.9568 39.1157 17.4607C39.6159 17.9646 39.6159 18.7749 39.1157 19.2788C38.3053 20.089 37.3348 20.7412 36.2443 21.1957C35.1938 21.6304 34.0532 21.8676 32.8627 21.8676V21.8577C30.4215 21.8577 28.2104 20.8696 26.6097 19.2788C25.0089 17.6781 24.0184 15.4747 24.0184 13.0341C24.0184 10.5935 25.0089 8.3901 26.6097 6.7894C28.2104 5.1887 30.4215 4.20061 32.8627 4.20061C35.3038 4.20061 37.5149 5.1887 39.1157 6.7894C40.7164 8.3901 41.7069 10.5935 41.7069 13.0341C41.7069 13.7455 41.1266 14.3186 40.4163 14.3186H26.7297C26.9798 15.534 27.5901 16.611 28.4305 17.4607C29.5711 18.597 31.1318 19.2986 32.8627 19.2986V19.2887C33.7131 19.2887 34.5235 19.1207 35.2538 18.8144C36.0242 18.5081 36.7045 18.0437 37.2948 17.4607ZM28.4305 8.60748C27.5901 9.44735 26.9798 10.5342 26.7297 11.7496H38.9956C38.7455 10.5342 38.1352 9.45723 37.2948 8.60748C36.1642 7.47118 34.5935 6.77952 32.8627 6.77952C31.1318 6.77952 29.5611 7.48106 28.4305 8.60748ZM51.7417 21.8577C49.3006 21.8577 47.0895 20.8696 45.4887 19.2788C43.888 17.6781 42.8975 15.4747 42.8975 13.0341C42.8975 10.5935 43.888 8.3901 45.4887 6.7894C47.0895 5.1887 49.3006 4.20061 51.7417 4.20061C54.1829 4.20061 56.394 5.1887 57.9947 6.7894L58.0147 6.80916V1.72052C58.0147 1.0091 58.595 0.436008 59.3054 0.436008C60.0157 0.436008 60.596 1.0091 60.596 1.72052V13.0341C60.596 13.0736 60.596 13.1131 60.586 13.1626C60.556 15.5537 59.5755 17.7077 58.0047 19.2788C56.394 20.8696 54.1829 21.8577 51.7417 21.8577ZM47.3096 17.4607C48.4501 18.597 50.0109 19.2986 51.7417 19.2986C53.4726 19.2986 55.0333 18.597 56.1739 17.4706C57.2844 16.3541 57.9847 14.8324 58.0147 13.1527C58.0147 13.123 58.0147 13.0835 58.0147 13.0539C58.0147 11.3247 57.3144 9.76354 56.1839 8.62724C55.0533 7.49094 53.4826 6.79928 51.7517 6.79928C50.0209 6.79928 48.4602 7.50082 47.3196 8.62724C46.1891 9.76354 45.4887 11.3247 45.4887 13.0539C45.4887 14.783 46.1791 16.3244 47.3096 17.4607ZM20.7068 5.51477C20.9469 4.85275 21.6873 4.50692 22.3476 4.74406C23.0179 4.9812 23.3581 5.72227 23.118 6.38428L17.9555 20.5337C17.7154 21.1957 16.975 21.5415 16.3147 21.3044C15.9445 21.166 15.6744 20.8795 15.5443 20.5337V20.5238L11.5924 9.69437L7.65054 20.5337C7.40042 21.1957 6.67007 21.5415 5.99974 21.3044C5.62957 21.166 5.35944 20.8795 5.22937 20.5337V20.5238L0.0768967 6.38428C-0.163219 5.72227 0.176945 4.9812 0.847267 4.74406C1.51759 4.50692 2.24794 4.84287 2.48806 5.51477L6.43996 16.3541L10.3919 5.52465V5.51477C10.5219 5.16894 10.792 4.88239 11.1622 4.74406C11.8325 4.50692 12.5629 4.84287 12.803 5.51477L16.7549 16.3541L20.7068 5.51477ZM77.1639 15.949C77.5141 16.5616 77.304 17.3422 76.6937 17.6979C76.0834 18.0536 75.2931 17.8362 74.9429 17.2236C73.7823 15.2277 73.5522 12.9452 74.1025 10.89C74.6527 8.82485 76.0034 6.96725 78.0043 5.81119C78.6146 5.45548 79.405 5.67286 79.7552 6.28548C80.1054 6.89809 79.8953 7.67868 79.285 8.03439C77.9043 8.83474 76.9739 10.1192 76.5837 11.552C76.2035 12.9847 76.3636 14.5656 77.1639 15.949Z" fill="url(#paint0_linear_701_659)"/>
<path d="M21.3178 43.98C20.4874 43.98 19.8271 43.7231 19.3568 43.1994C18.8866 42.6757 18.6465 41.9544 18.6465 41.0256C18.6465 40.0672 18.8966 39.3261 19.3868 38.7925C19.8771 38.259 20.5474 37.9922 21.3978 37.9922C21.898 37.9922 22.3883 38.0811 22.8485 38.2491L22.6984 38.7135C22.1982 38.5455 21.758 38.4665 21.3778 38.4665C20.6575 38.4665 20.1172 38.6838 19.747 39.1285C19.3768 39.5632 19.1967 40.1956 19.1967 41.0157C19.1967 41.7963 19.3768 42.4089 19.747 42.8437C20.1172 43.2784 20.6274 43.5057 21.2978 43.5057C21.828 43.5057 22.3182 43.4168 22.7785 43.229V43.7132C22.4083 43.8911 21.9181 43.98 21.3178 43.98Z" fill="#676D7B"/>
<path d="M28.7514 39.4946C28.7514 39.8602 28.6614 40.1468 28.4813 40.3543C28.3012 40.5618 28.0011 40.7001 27.5909 40.789V40.8286C28.0611 40.878 28.4013 41.0163 28.6114 41.2337C28.8215 41.4412 28.9315 41.7475 28.9315 42.1526C28.9315 42.7059 28.7414 43.1407 28.3713 43.4371C28.0011 43.7335 27.4608 43.8817 26.7505 43.8817H24.2793V38.1113H26.7605C27.4308 38.1113 27.9311 38.2299 28.2612 38.467C28.5914 38.6943 28.7514 39.0401 28.7514 39.4946ZM28.3613 42.1328C28.3613 41.4214 27.811 41.0756 26.7105 41.0756H24.8096V43.3778H26.7905C27.831 43.3778 28.3613 42.9628 28.3613 42.1328ZM28.1912 39.5342C28.1912 39.1982 28.0711 38.9611 27.821 38.8129C27.5809 38.6647 27.2107 38.5955 26.7205 38.5955H24.8096V40.5717H26.6704C27.2107 40.5717 27.6009 40.4926 27.841 40.3246C28.0711 40.1567 28.1912 39.8998 28.1912 39.5342Z" fill="#676D7B"/>
<path d="M34.1035 43.8731L33.9734 42.9641H33.9334C33.6433 43.3396 33.3331 43.5965 33.023 43.7546C32.7128 43.9028 32.3526 43.9818 31.9224 43.9818C31.3522 43.9818 30.9019 43.8336 30.5818 43.5471C30.2616 43.2605 30.1016 42.8554 30.1016 42.3416C30.1016 41.7784 30.3417 41.3436 30.8119 41.0274C31.2921 40.7113 31.9725 40.5532 32.8729 40.5334L33.9834 40.5038V40.1184C33.9834 39.5651 33.8734 39.16 33.6433 38.8734C33.4132 38.5968 33.053 38.4584 32.5527 38.4584C32.0125 38.4584 31.4522 38.6066 30.8719 38.9031L30.6718 38.4485C31.3121 38.1521 31.9424 38.0039 32.5728 38.0039C33.2131 38.0039 33.6933 38.1719 34.0034 38.4979C34.3236 38.824 34.4837 39.3378 34.4837 40.0394V43.8731H34.1035ZM31.9625 43.4977C32.5828 43.4977 33.073 43.3198 33.4332 42.974C33.7933 42.6183 33.9734 42.1341 33.9734 41.5017V40.9385L32.9529 40.978C32.1325 41.0176 31.5423 41.146 31.1921 41.3634C30.8419 41.5709 30.6718 41.9068 30.6718 42.3614C30.6718 42.727 30.7819 43.0036 31.002 43.2012C31.2321 43.3989 31.5523 43.4977 31.9625 43.4977Z" fill="#676D7B"/>
<path d="M41.2163 45.8283H40.686V43.8719H36.2139V45.8283H35.6836V43.3778H36.0738C36.564 42.7059 36.9342 41.9155 37.2043 41.0262C37.4645 40.1369 37.6045 39.1587 37.6245 38.1113H40.4359V43.3778H41.2163V45.8283ZM39.9056 43.3778V38.5955H38.0847C37.9947 40.5124 37.5245 42.1032 36.6741 43.3778H39.9056Z" fill="#676D7B"/>
<path d="M44.879 43.9818C44.0286 43.9818 43.3683 43.7249 42.8881 43.2111C42.4178 42.6973 42.1777 41.9661 42.1777 41.0373C42.1777 40.1184 42.4078 39.3773 42.8681 38.8339C43.3283 38.2806 43.9486 38.0039 44.719 38.0039C45.4093 38.0039 45.9495 38.241 46.3497 38.7153C46.7499 39.1896 46.95 39.8319 46.95 40.6421V41.067H42.738C42.748 41.8574 42.9281 42.4602 43.2983 42.885C43.6684 43.3 44.1987 43.5075 44.879 43.5075C45.2092 43.5075 45.4993 43.4878 45.7595 43.4384C46.0096 43.389 46.3297 43.2902 46.7199 43.1419V43.6162C46.3898 43.7546 46.0896 43.8534 45.8095 43.9028C45.5193 43.9522 45.2092 43.9818 44.879 43.9818ZM44.719 38.4584C44.1587 38.4584 43.7085 38.6462 43.3683 39.0118C43.0281 39.3773 42.828 39.901 42.768 40.5927H46.3798C46.3798 39.9208 46.2297 39.407 45.9395 39.0315C45.6494 38.6462 45.2392 38.4584 44.719 38.4584Z" fill="#676D7B"/>
<path d="M48.2891 40.404C48.2891 37.8943 48.9994 36.4714 50.4301 36.1256C50.9303 35.9971 51.4106 35.8983 51.8708 35.8094C52.331 35.7205 52.7412 35.6414 53.0914 35.5723L53.1914 36.0268L52.5511 36.1454C51.4906 36.343 50.7803 36.4912 50.4401 36.5999C49.9599 36.7382 49.5797 37.0643 49.2995 37.588C49.0294 38.1116 48.8693 38.8329 48.8293 39.742H48.8593C49.2395 39.2973 49.6197 38.9713 49.9799 38.7835C50.34 38.5859 50.7102 38.4871 51.1004 38.4871C51.8208 38.4871 52.361 38.7144 52.7412 39.1689C53.1214 39.6234 53.3115 40.2756 53.3115 41.1154C53.3115 42.0146 53.0914 42.7062 52.6512 43.2102C52.2109 43.7042 51.6007 43.9611 50.8103 43.9611C50.0099 43.9611 49.3796 43.6548 48.9394 43.0323C48.5092 42.4296 48.2891 41.5502 48.2891 40.404ZM50.8703 43.4967C51.4806 43.4967 51.9508 43.2991 52.271 42.894C52.6011 42.4889 52.7612 41.9059 52.7612 41.155C52.7612 40.4336 52.6111 39.9001 52.321 39.5345C52.0309 39.1689 51.6107 38.9812 51.0504 38.9812C50.6302 38.9812 50.23 39.1096 49.8398 39.3665C49.4496 39.6234 49.1095 39.9791 48.8193 40.4238C48.8193 41.0561 48.8994 41.6095 49.0594 42.0936C49.2195 42.5679 49.4496 42.9236 49.7598 43.1509C50.0699 43.388 50.4401 43.4967 50.8703 43.4967Z" fill="#676D7B"/>
<path d="M55.5127 38.1016V40.6311H59.2245V38.1016H59.7547V43.872H59.2245V41.0955H55.5127V43.872H54.9824V38.1016H55.5127Z" fill="#676D7B"/>
<path d="M62.2959 40.5323H64.1568C65.5274 40.5323 66.2178 41.0658 66.2178 42.133C66.2178 42.6863 66.0277 43.1112 65.6475 43.4175C65.2573 43.7238 64.707 43.872 63.9867 43.872H61.7656V38.1016H62.2959V40.5323ZM62.2959 41.0362V43.3779H64.0767C64.577 43.3779 64.9672 43.2693 65.2473 43.0618C65.5174 42.8543 65.6575 42.5381 65.6575 42.1231C65.6575 41.7377 65.5374 41.4611 65.2973 41.2931C65.0572 41.1152 64.637 41.0362 64.0467 41.0362H62.2959ZM67.7585 43.872H67.2282V38.1016H67.7585V43.872Z" fill="#676D7B"/>
<path d="M70.2913 38.1011V42.2708L70.2612 43.3577L73.7229 38.1011H74.4332V43.8715H73.923V39.7314L73.943 38.6149L70.4813 43.8715H69.791V38.1011H70.2913ZM72.1121 37.281C71.5819 37.281 71.1717 37.1624 70.8915 36.9351C70.6114 36.698 70.4513 36.3225 70.4013 35.7988H70.8715C70.9216 36.1842 71.0516 36.4608 71.2417 36.6288C71.4318 36.7869 71.7219 36.866 72.1221 36.866C72.5123 36.866 72.8125 36.7869 73.0026 36.6189C73.1926 36.451 73.3127 36.1842 73.3527 35.7988H73.823C73.7529 36.7869 73.1826 37.281 72.1121 37.281Z" fill="#676D7B"/>
<path d="M84.1976 40.9762C84.1976 41.9149 83.9675 42.656 83.5073 43.1796C83.0471 43.7033 82.4068 43.9701 81.5964 43.9701C81.0861 43.9701 80.6359 43.8515 80.2457 43.6045C79.8555 43.3575 79.5554 43.0117 79.3453 42.5571C79.1352 42.1026 79.0352 41.5691 79.0352 40.9762C79.0352 40.0375 79.2653 39.3063 79.7255 38.7827C80.1857 38.259 80.826 37.9922 81.6264 37.9922C82.4268 37.9922 83.0571 38.259 83.5173 38.7925C83.9675 39.3261 84.1976 40.0474 84.1976 40.9762ZM79.5854 40.9762C79.5854 41.7667 79.7655 42.3892 80.1157 42.8338C80.4658 43.2784 80.9661 43.4958 81.6164 43.4958C82.2667 43.4958 82.7569 43.2784 83.1071 42.8338C83.4573 42.3892 83.6374 41.7667 83.6374 40.9762C83.6374 40.1759 83.4573 39.5632 83.0971 39.1285C82.7469 38.6937 82.2467 38.4665 81.5964 38.4665C80.9561 38.4665 80.4558 38.6838 80.1057 39.1285C79.7555 39.5632 79.5854 40.1759 79.5854 40.9762Z" fill="#676D7B"/>
<path d="M86.3974 38.1016V40.6311H90.1092V38.1016H90.6395V43.872H90.1092V41.0955H86.3974V43.872H85.8672V38.1016H86.3974Z" fill="#676D7B"/>
<path d="M96.6938 43.8719H96.1636V38.5955H94.0926C93.9825 39.9887 93.8525 41.0558 93.6924 41.7969C93.5423 42.5281 93.3422 43.0715 93.0921 43.4174C92.852 43.7632 92.5318 43.9312 92.1417 43.9312C92.0016 43.9312 91.8815 43.9213 91.7715 43.8916V43.4174C91.8415 43.4371 91.9316 43.447 92.0616 43.447C92.4618 43.447 92.792 43.0221 93.0421 42.1822C93.2922 41.3325 93.4823 39.9788 93.6124 38.1113H96.6838V43.8719H96.6938Z" fill="#676D7B"/>
<path d="M102.246 43.8731L102.116 42.9641H102.076C101.786 43.3396 101.475 43.5965 101.165 43.7546C100.855 43.9028 100.495 43.9818 100.075 43.9818C99.5045 43.9818 99.0543 43.8336 98.7341 43.5471C98.414 43.2605 98.2539 42.8554 98.2539 42.3416C98.2539 41.7784 98.494 41.3436 98.9642 41.0274C99.4445 40.7113 100.125 40.5532 101.025 40.5334L102.136 40.5038V40.1184C102.136 39.5651 102.026 39.16 101.796 38.8734C101.576 38.5968 101.205 38.4584 100.705 38.4584C100.165 38.4584 99.6046 38.6066 99.0243 38.9031L98.8242 38.4485C99.4645 38.1521 100.105 38.0039 100.725 38.0039C101.365 38.0039 101.846 38.1719 102.156 38.4979C102.476 38.824 102.636 39.3378 102.636 40.0394V43.8731H102.246ZM100.105 43.4977C100.725 43.4977 101.215 43.3198 101.576 42.974C101.936 42.6183 102.116 42.1341 102.116 41.5017V40.9385L101.095 40.978C100.275 41.0176 99.6946 41.146 99.3344 41.3634C98.9843 41.5709 98.8142 41.9068 98.8142 42.3614C98.8142 42.727 98.9242 43.0036 99.1443 43.2012C99.3744 43.3989 99.6946 43.4977 100.105 43.4977Z" fill="#676D7B"/>
<path d="M105.098 38.1011V42.2708L105.068 43.3577L108.53 38.1011H109.24V43.8715H108.73V39.7314L108.75 38.6149L105.288 43.8715H104.598V38.1011H105.098ZM106.919 37.281C106.389 37.281 105.978 37.1624 105.698 36.9351C105.418 36.698 105.258 36.3225 105.208 35.7988H105.678C105.728 36.1842 105.848 36.4608 106.038 36.6288C106.228 36.7869 106.519 36.866 106.919 36.866C107.309 36.866 107.599 36.7869 107.799 36.6189C107.989 36.451 108.109 36.1842 108.149 35.7988H108.62C108.56 36.7869 107.989 37.281 106.919 37.281Z" fill="#676D7B"/>
<path d="M111.79 38.1016V40.6311H115.502V38.1016H116.032V43.872H115.502V41.0955H111.79V43.872H111.26V38.1016H111.79Z" fill="#676D7B"/>
<path d="M117.553 41.1555V40.7207H120.104V41.1555H117.553Z" fill="#676D7B"/>
<path d="M123.976 43.98C123.146 43.98 122.485 43.7231 122.015 43.1994C121.545 42.6757 121.305 41.9544 121.305 41.0256C121.305 40.0672 121.555 39.3261 122.045 38.7925C122.535 38.259 123.206 37.9922 124.056 37.9922C124.556 37.9922 125.046 38.0811 125.507 38.2491L125.367 38.7135C124.866 38.5455 124.426 38.4665 124.046 38.4665C123.326 38.4665 122.785 38.6838 122.415 39.1285C122.045 39.5632 121.865 40.1956 121.865 41.0157C121.865 41.7963 122.045 42.4089 122.415 42.8437C122.785 43.2784 123.296 43.5057 123.966 43.5057C124.496 43.5057 124.986 43.4168 125.447 43.229V43.7132C125.066 43.8911 124.576 43.98 123.976 43.98Z" fill="#676D7B"/>
<path d="M129.289 43.9818C128.439 43.9818 127.778 43.7249 127.298 43.2111C126.828 42.6973 126.588 41.9661 126.588 41.0373C126.588 40.1184 126.818 39.3773 127.278 38.8339C127.738 38.2806 128.359 38.0039 129.129 38.0039C129.819 38.0039 130.36 38.241 130.76 38.7153C131.16 39.1896 131.36 39.8319 131.36 40.6421V41.067H127.148C127.158 41.8574 127.338 42.4602 127.708 42.885C128.079 43.3 128.609 43.5075 129.289 43.5075C129.619 43.5075 129.909 43.4878 130.17 43.4384C130.42 43.389 130.75 43.2902 131.13 43.1419V43.6162C130.8 43.7546 130.5 43.8534 130.22 43.9028C129.94 43.9522 129.629 43.9818 129.289 43.9818ZM129.139 38.4584C128.579 38.4584 128.129 38.6462 127.788 39.0118C127.448 39.3773 127.248 39.901 127.188 40.5927H130.8C130.8 39.9208 130.65 39.407 130.36 39.0315C130.06 38.6462 129.659 38.4584 129.139 38.4584Z" fill="#676D7B"/>
<path d="M135.522 43.9801C134.622 43.9801 133.972 43.6442 133.562 42.9821H133.521L133.541 43.4268C133.551 43.6837 133.562 43.9801 133.562 44.2864V46.48H133.031V38.101H133.481L133.582 38.9211H133.612C134.012 38.2986 134.652 37.9824 135.532 37.9824C136.323 37.9824 136.923 38.2393 137.333 38.7531C137.744 39.2669 137.954 40.008 137.954 40.9862C137.954 41.9348 137.734 42.6659 137.293 43.1896C136.873 43.7133 136.273 43.9801 135.522 43.9801ZM135.512 43.5058C136.113 43.5058 136.573 43.2884 136.893 42.8438C137.223 42.409 137.383 41.7865 137.383 41.006C137.383 39.3065 136.763 38.4666 135.522 38.4666C134.842 38.4666 134.342 38.6543 134.022 39.0199C133.702 39.3855 133.541 39.9882 133.541 40.8281V40.9961C133.541 41.8952 133.692 42.5375 134.002 42.9327C134.322 43.3181 134.822 43.5058 135.512 43.5058Z" fill="#676D7B"/>
<path d="M144.117 39.4946C144.117 39.8602 144.027 40.1468 143.847 40.3543C143.666 40.5618 143.366 40.7001 142.956 40.789V40.8286C143.426 40.878 143.767 41.0163 143.967 41.2337C144.177 41.4412 144.287 41.7475 144.287 42.1526C144.287 42.7059 144.097 43.1407 143.726 43.4371C143.356 43.7335 142.816 43.8817 142.106 43.8817H139.645V38.1113H142.126C142.796 38.1113 143.286 38.2299 143.626 38.467C143.947 38.6943 144.117 39.0401 144.117 39.4946ZM143.726 42.1328C143.726 41.4214 143.176 41.0756 142.076 41.0756H140.175V43.3778H142.156C143.196 43.3778 143.726 42.9628 143.726 42.1328ZM143.556 39.5342C143.556 39.1982 143.436 38.9611 143.186 38.8129C142.946 38.6647 142.576 38.5955 142.086 38.5955H140.165V40.5717H142.026C142.566 40.5717 142.956 40.4926 143.196 40.3246C143.436 40.1567 143.556 39.8998 143.556 39.5342Z" fill="#676D7B"/>
<path d="M146.428 38.1016V42.2713L146.398 43.3582L149.86 38.1016H150.57V43.872H150.06V39.7319L150.08 38.6154L146.618 43.872H145.928V38.1016H146.428Z" fill="#676D7B"/>
<path d="M154.921 43.98C154.081 43.98 153.431 43.7231 152.96 43.1994C152.49 42.6757 152.25 41.9544 152.25 41.0256C152.25 40.0672 152.49 39.3261 152.99 38.7925C153.481 38.259 154.151 37.9922 155.001 37.9922C155.502 37.9922 155.992 38.0811 156.452 38.2491L156.302 38.7135C155.792 38.5455 155.362 38.4665 154.981 38.4665C154.261 38.4665 153.721 38.6838 153.351 39.1285C152.98 39.5632 152.8 40.1956 152.8 41.0157C152.8 41.7963 152.98 42.4089 153.351 42.8437C153.721 43.2784 154.231 43.5057 154.901 43.5057C155.432 43.5057 155.922 43.4168 156.382 43.229V43.7132C156.022 43.8911 155.532 43.98 154.921 43.98Z" fill="#676D7B"/>
<defs>
<linearGradient id="paint0_linear_701_659" x1="-0.00314165" y1="15.9373" x2="172.991" y2="15.9373" gradientUnits="userSpaceOnUse">
<stop stop-color="#FF375F"/>
<stop offset="1" stop-color="#FD9478"/>
</linearGradient>
</defs>
</svg>
